<?xml version="1.0" encoding="UTF-8"?>
<svg version="1.1" xmlns="http://www.w3.org/2000/svg" width="800" height="800">
<path d="M0 0 C0.97324219 0.83789062 1.94648438 1.67578125 2.94921875 2.5390625 C4.23892578 3.64121094 4.23892578 3.64121094 5.5546875 4.765625 C18.90998421 17.12299016 27.07182881 34.10169116 35.44921875 49.96484375 C38.64868168 56.01504227 41.9884293 61.97383585 45.38671875 67.9140625 C50.27717678 76.48662414 54.99522319 85.14264651 59.63671875 93.8515625 C64.43118167 102.8462912 69.27466877 111.80701096 74.25 120.703125 C77.71812541 126.90447938 81.14386025 133.12927192 84.57421875 139.3515625 C85.26422304 140.6027934 85.95424593 141.85401405 86.64428711 143.10522461 C88.04714771 145.64902793 89.44988235 148.19290066 90.85253906 150.73681641 C93.55516207 155.63819681 96.25910322 160.5388497 98.96313477 165.43945312 C100.28934307 167.84298913 101.61534055 170.24664126 102.94116211 172.65039062 C105.96721313 178.13642412 108.99430393 183.62187265 112.02612305 189.10472107 C119.22004682 202.1146795 126.37700615 215.14235778 133.44262695 228.22265625 C137.74329135 236.17758053 142.11614438 244.08988611 146.52392578 251.98583984 C154.89779045 266.98650389 163.23195964 282.0048905 171.39257812 297.12280273 C174.86704827 303.55516667 178.38328056 309.96177679 181.9440918 316.34667969 C185.84188995 323.33668483 189.70968266 330.34313339 193.57421875 337.3515625 C194.26407643 338.60245898 194.95393647 339.85335415 195.64379883 341.10424805 C197.04681238 343.64838229 198.44970358 346.19258397 199.85253906 348.73681641 C202.55516207 353.63819681 205.25910322 358.5388497 207.96313477 363.43945312 C209.28934307 365.84298913 210.61534055 368.24664126 211.94116211 370.65039062 C214.96721313 376.13642412 217.99430393 381.62187265 221.02612305 387.10472107 C228.22083734 400.11610913 235.3790216 413.14499079 242.44482422 426.22705078 C245.90299065 432.62417495 249.40246142 438.99606928 252.94433594 445.34716797 C257.531426 453.57310774 262.08041172 461.82006472 266.62182617 470.07128906 C269.80900466 475.85998983 273.00248066 481.64465214 276.23233032 487.40968323 C277.67158811 489.97964276 279.10580634 492.55239922 280.53973389 495.12533569 C281.21502458 496.33377893 281.89269472 497.54089647 282.57305908 498.74649048 C296.31889649 523.11081687 303.57551775 547.86297743 295.94921875 575.5390625 C290.5152575 593.07593744 280.47211742 609.15481226 265.94921875 620.5390625 C265.16289063 621.17328125 264.3765625 621.8075 263.56640625 622.4609375 C239.0033814 641.37813275 211.2045622 644.69659512 181.16439819 644.67277527 C178.93137817 644.6746448 176.69835848 644.67694608 174.4653393 644.67964059 C168.34335585 644.68574737 162.22138608 644.68562632 156.09940028 644.68444622 C150.17033167 644.68426292 144.24126705 644.68875688 138.3122004 644.6930591 C124.69137647 644.70271683 111.07055632 644.70554276 97.44972937 644.70611616 C86.92811101 644.7065762 76.40649413 644.70863708 65.88487625 644.71181679 C62.85317727 644.71271437 59.82147829 644.71360419 56.78977931 644.71449167 C56.03602799 644.71471271 55.28227668 644.71493376 54.50568442 644.71516151 C33.31129187 644.72131352 12.11689982 644.7252623 -9.07749367 644.72481823 C-9.87614904 644.72480265 -10.67480441 644.72478707 -11.49766146 644.72477102 C-15.54531671 644.72468792 -19.59297197 644.72458888 -23.64062722 644.72448631 C-24.44446443 644.72446637 -25.24830163 644.72444642 -26.07649754 644.72442587 C-27.70205183 644.72438544 -29.32760613 644.72434364 -30.95316042 644.72430048 C-56.23717129 644.7236879 -81.52116875 644.73119212 -106.80517578 644.74487305 C-135.23104826 644.76024778 -163.65691193 644.76883843 -192.08278883 644.76790982 C-195.11637394 644.7678352 -198.14995905 644.76778649 -201.18354416 644.76775551 C-201.93045402 644.76774385 -202.67736389 644.7677322 -203.44690739 644.76772019 C-215.44430672 644.76768947 -227.44169436 644.77406367 -239.43909021 644.78268777 C-251.50604198 644.79118221 -263.57297673 644.79214021 -275.63992985 644.78557845 C-282.17158407 644.78221777 -288.70320461 644.78224349 -295.23485565 644.7909317 C-301.22206703 644.79881361 -307.20920291 644.79734798 -313.19641249 644.78864757 C-315.35451488 644.78711631 -317.51262294 644.78891454 -319.67071863 644.79450765 C-348.75309667 644.86484718 -379.46748143 641.12284177 -402.1015625 620.6875 C-403.22974304 619.55207204 -404.33958943 618.39767342 -405.41796875 617.21484375 C-407.08288541 615.42108138 -407.08288541 615.42108138 -409.41015625 613.76171875 C-424.28607478 601.24042046 -432.55660166 580.3395294 -435.05078125 561.5390625 C-437.00593625 530.01889699 -423.25231621 506.04139197 -408.09960938 479.47900391 C-403.97068038 472.22426703 -399.98617615 464.90035435 -396.05078125 457.5390625 C-391.67333833 449.35323216 -387.21396569 441.22653646 -382.61328125 433.1640625 C-377.78321178 424.6966791 -373.12821813 416.14493585 -368.55078125 407.5390625 C-363.47131833 397.98934816 -358.26128541 388.52741159 -352.90112305 379.13208008 C-348.15319599 370.78408446 -343.60141332 362.33652756 -339.06567383 353.87182617 C-335.03771361 346.35831452 -330.94150239 338.88832322 -326.78515625 331.4453125 C-323.30888866 325.21853364 -319.86904186 318.97162785 -316.42578125 312.7265625 C-315.73585027 311.47549881 -315.0459088 310.2244409 -314.35595703 308.97338867 C-312.95301996 306.42941989 -311.55020704 303.88538269 -310.14746094 301.34130859 C-307.44483793 296.43992819 -304.74089678 291.5392753 -302.03686523 286.63867188 C-300.71065693 284.23513587 -299.38465945 281.83148374 -298.05883789 279.42773438 C-295.03277255 273.94167493 -292.00567274 268.45619751 -288.97383118 262.97332764 C-287.26968161 259.89142225 -285.56630408 256.80909064 -283.86328125 253.7265625 C-283.36252579 252.82028107 -283.36252579 252.82028107 -282.85165405 251.89569092 C-278.31145634 243.67539548 -273.8188185 235.43061255 -269.36328125 227.1640625 C-265.20236311 219.44493432 -260.95185689 211.78469997 -256.61328125 204.1640625 C-251.28723506 194.80878167 -246.15057351 185.36126346 -241.06616211 175.87280273 C-237.03809255 168.3589361 -232.94167987 160.88864105 -228.78515625 153.4453125 C-225.30888866 147.21853364 -221.86904186 140.97162785 -218.42578125 134.7265625 C-217.73585027 133.47549881 -217.0459088 132.2244409 -216.35595703 130.97338867 C-214.95301996 128.42941989 -213.55020704 125.88538269 -212.14746094 123.34130859 C-209.44483793 118.43992819 -206.74089678 113.5392753 -204.03686523 108.63867188 C-202.71065693 106.23513587 -201.38465945 103.83148374 -200.05883789 101.42773438 C-197.03279451 95.94171473 -194.00572637 90.45627174 -190.97389221 84.97344971 C-189.26972886 81.89150003 -187.56647439 78.80904842 -185.86328125 75.7265625 C-185.53077362 75.12503357 -185.19826599 74.52350464 -184.85568237 73.90374756 C-180.78503732 66.53727444 -176.7530857 59.15139591 -172.76733398 51.73852539 C-155.89488221 20.37693348 -137.07424105 -7.78237303 -101.32739258 -18.69165039 C-66.77750916 -28.46936003 -28.13384628 -23.31240672 0 0 Z " fill="#67327F" transform="translate(468.05078125,89.4609375)"/>
<path d="M0 0 C0.97324219 0.83789062 1.94648438 1.67578125 2.94921875 2.5390625 C4.23892578 3.64121094 4.23892578 3.64121094 5.5546875 4.765625 C18.90998421 17.12299016 27.07182881 34.10169116 35.44921875 49.96484375 C38.64868168 56.01504227 41.9884293 61.97383585 45.38671875 67.9140625 C50.27717678 76.48662414 54.99522319 85.14264651 59.63671875 93.8515625 C64.43118167 102.8462912 69.27466877 111.80701096 74.25 120.703125 C77.71812541 126.90447938 81.14386025 133.12927192 84.57421875 139.3515625 C85.26422304 140.6027934 85.95424593 141.85401405 86.64428711 143.10522461 C88.04714771 145.64902793 89.44988235 148.19290066 90.85253906 150.73681641 C93.55516207 155.63819681 96.25910322 160.5388497 98.96313477 165.43945312 C100.28934307 167.84298913 101.61534055 170.24664126 102.94116211 172.65039062 C105.96721313 178.13642412 108.99430393 183.62187265 112.02612305 189.10472107 C119.22004682 202.1146795 126.37700615 215.14235778 133.44262695 228.22265625 C137.74329135 236.17758053 142.11614438 244.08988611 146.52392578 251.98583984 C154.89779045 266.98650389 163.23195964 282.0048905 171.39257812 297.12280273 C174.86704827 303.55516667 178.38328056 309.96177679 181.9440918 316.34667969 C185.84188995 323.33668483 189.70968266 330.34313339 193.57421875 337.3515625 C194.26407643 338.60245898 194.95393647 339.85335415 195.64379883 341.10424805 C197.04681238 343.64838229 198.44970358 346.19258397 199.85253906 348.73681641 C202.55516207 353.63819681 205.25910322 358.5388497 207.96313477 363.43945312 C209.28934307 365.84298913 210.61534055 368.24664126 211.94116211 370.65039062 C214.96721313 376.13642412 217.99430393 381.62187265 221.02612305 387.10472107 C228.22083734 400.11610913 235.3790216 413.14499079 242.44482422 426.22705078 C245.90299065 432.62417495 249.40246142 438.99606928 252.94433594 445.34716797 C257.531426 453.57310774 262.08041172 461.82006472 266.62182617 470.07128906 C269.80900466 475.85998983 273.00248066 481.64465214 276.23233032 487.40968323 C277.67158811 489.97964276 279.10580634 492.55239922 280.53973389 495.12533569 C281.21502458 496.33377893 281.89269472 497.54089647 282.57305908 498.74649048 C296.31889649 523.11081687 303.57551775 547.86297743 295.94921875 575.5390625 C290.5152575 593.07593744 280.47211742 609.15481226 265.94921875 620.5390625 C265.16289063 621.17328125 264.3765625 621.8075 263.56640625 622.4609375 C239.0033814 641.37813275 211.2045622 644.69659512 181.16439819 644.67277527 C178.93137817 644.6746448 176.69835848 644.67694608 174.4653393 644.67964059 C168.34335585 644.68574737 162.22138608 644.68562632 156.09940028 644.68444622 C150.17033167 644.68426292 144.24126705 644.68875688 138.3122004 644.6930591 C124.69137647 644.70271683 111.07055632 644.70554276 97.44972937 644.70611616 C86.92811101 644.7065762 76.40649413 644.70863708 65.88487625 644.71181679 C62.85317727 644.71271437 59.82147829 644.71360419 56.78977931 644.71449167 C56.03602799 644.71471271 55.28227668 644.71493376 54.50568442 644.71516151 C33.31129187 644.72131352 12.11689982 644.7252623 -9.07749367 644.72481823 C-9.87614904 644.72480265 -10.67480441 644.72478707 -11.49766146 644.72477102 C-15.54531671 644.72468792 -19.59297197 644.72458888 -23.64062722 644.72448631 C-24.44446443 644.72446637 -25.24830163 644.72444642 -26.07649754 644.72442587 C-27.70205183 644.72438544 -29.32760613 644.72434364 -30.95316042 644.72430048 C-56.23717129 644.7236879 -81.52116875 644.73119212 -106.80517578 644.74487305 C-135.23104826 644.76024778 -163.65691193 644.76883843 -192.08278883 644.76790982 C-195.11637394 644.7678352 -198.14995905 644.76778649 -201.18354416 644.76775551 C-201.93045402 644.76774385 -202.67736389 644.7677322 -203.44690739 644.76772019 C-215.44430672 644.76768947 -227.44169436 644.77406367 -239.43909021 644.78268777 C-251.50604198 644.79118221 -263.57297673 644.79214021 -275.63992985 644.78557845 C-282.17158407 644.78221777 -288.70320461 644.78224349 -295.23485565 644.7909317 C-301.22206703 644.79881361 -307.20920291 644.79734798 -313.19641249 644.78864757 C-315.35451488 644.78711631 -317.51262294 644.78891454 -319.67071863 644.79450765 C-348.75309667 644.86484718 -379.46748143 641.12284177 -402.1015625 620.6875 C-403.22974304 619.55207204 -404.33958943 618.39767342 -405.41796875 617.21484375 C-407.08288541 615.42108138 -407.08288541 615.42108138 -409.41015625 613.76171875 C-424.28607478 601.24042046 -432.55660166 580.3395294 -435.05078125 561.5390625 C-437.00593625 530.01889699 -423.25231621 506.04139197 -408.09960938 479.47900391 C-403.97068038 472.22426703 -399.98617615 464.90035435 -396.05078125 457.5390625 C-391.67333833 449.35323216 -387.21396569 441.22653646 -382.61328125 433.1640625 C-377.78321178 424.6966791 -373.12821813 416.14493585 -368.55078125 407.5390625 C-363.47131833 397.98934816 -358.26128541 388.52741159 -352.90112305 379.13208008 C-348.15319599 370.78408446 -343.60141332 362.33652756 -339.06567383 353.87182617 C-335.03771361 346.35831452 -330.94150239 338.88832322 -326.78515625 331.4453125 C-323.30888866 325.21853364 -319.86904186 318.97162785 -316.42578125 312.7265625 C-315.73585027 311.47549881 -315.0459088 310.2244409 -314.35595703 308.97338867 C-312.95301996 306.42941989 -311.55020704 303.88538269 -310.14746094 301.34130859 C-307.44483793 296.43992819 -304.74089678 291.5392753 -302.03686523 286.63867188 C-300.71065693 284.23513587 -299.38465945 281.83148374 -298.05883789 279.42773438 C-295.03277255 273.94167493 -292.00567274 268.45619751 -288.97383118 262.97332764 C-287.26968161 259.89142225 -285.56630408 256.80909064 -283.86328125 253.7265625 C-283.36252579 252.82028107 -283.36252579 252.82028107 -282.85165405 251.89569092 C-278.31145634 243.67539548 -273.8188185 235.43061255 -269.36328125 227.1640625 C-265.20236311 219.44493432 -260.95185689 211.78469997 -256.61328125 204.1640625 C-251.28723506 194.80878167 -246.15057351 185.36126346 -241.06616211 175.87280273 C-237.03809255 168.3589361 -232.94167987 160.88864105 -228.78515625 153.4453125 C-225.30888866 147.21853364 -221.86904186 140.97162785 -218.42578125 134.7265625 C-217.73585027 133.47549881 -217.0459088 132.2244409 -216.35595703 130.97338867 C-214.95301996 128.42941989 -213.55020704 125.88538269 -212.14746094 123.34130859 C-209.44483793 118.43992819 -206.74089678 113.5392753 -204.03686523 108.63867188 C-202.71065693 106.23513587 -201.38465945 103.83148374 -200.05883789 101.42773438 C-197.03279451 95.94171473 -194.00572637 90.45627174 -190.97389221 84.97344971 C-189.26972886 81.89150003 -187.56647439 78.80904842 -185.86328125 75.7265625 C-185.53077362 75.12503357 -185.19826599 74.52350464 -184.85568237 73.90374756 C-180.78503732 66.53727444 -176.7530857 59.15139591 -172.76733398 51.73852539 C-155.89488221 20.37693348 -137.07424105 -7.78237303 -101.32739258 -18.69165039 C-66.77750916 -28.46936003 -28.13384628 -23.31240672 0 0 Z M-99.05078125 57.5390625 C-102.00065111 61.88445038 -104.45297188 66.44337733 -106.86328125 71.1015625 C-107.54834899 72.38816264 -108.23539504 73.67371115 -108.92431641 74.95825195 C-110.31638994 77.56031834 -111.69781784 80.16757192 -113.06982422 82.78027344 C-115.96716772 88.29189779 -118.95147371 93.75622355 -121.92578125 99.2265625 C-122.98853605 101.19257062 -124.05104346 103.15871249 -125.11328125 105.125 C-129.35922988 112.96683924 -133.70419174 120.75272589 -138.05078125 128.5390625 C-145.94519519 142.6911596 -153.7965011 156.86257981 -161.49414062 171.12280273 C-164.96861077 177.55516667 -168.48484306 183.96177679 -172.0456543 190.34667969 C-175.94345245 197.33668483 -179.81124516 204.34313339 -183.67578125 211.3515625 C-184.36563893 212.60245898 -185.05549897 213.85335415 -185.74536133 215.10424805 C-187.14837488 217.64838229 -188.55126608 220.19258397 -189.95410156 222.73681641 C-192.65672457 227.63819681 -195.36066572 232.5388497 -198.06469727 237.43945312 C-199.39090557 239.84298913 -200.71690305 242.24664126 -202.04272461 244.65039062 C-205.06877563 250.13642412 -208.09586643 255.62187265 -211.12768555 261.10472107 C-218.32160932 274.1146795 -225.47856865 287.14235778 -232.54418945 300.22265625 C-237.30845048 309.03509364 -242.16787582 317.79198731 -247.05078125 326.5390625 C-254.94519519 340.6911596 -262.7965011 354.86257981 -270.49414062 369.12280273 C-273.96861077 375.55516667 -277.48484306 381.96177679 -281.0456543 388.34667969 C-284.94345245 395.33668483 -288.81124516 402.34313339 -292.67578125 409.3515625 C-293.36563893 410.60245898 -294.05549897 411.85335415 -294.74536133 413.10424805 C-296.14837488 415.64838229 -297.55126608 418.19258397 -298.95410156 420.73681641 C-301.65672457 425.63819681 -304.36066572 430.5388497 -307.06469727 435.43945312 C-308.39090557 437.84298913 -309.71690305 440.24664126 -311.04272461 442.65039062 C-314.06878995 448.13645007 -317.09588976 453.62192749 -320.12773132 459.10479736 C-321.83188089 462.18670275 -323.53525842 465.26903436 -325.23828125 468.3515625 C-325.73903671 469.25784393 -325.73903671 469.25784393 -326.24990845 470.18243408 C-331.32747588 479.37566904 -336.33760103 488.60398724 -341.32006836 497.84912109 C-345.06381628 504.77327978 -348.9110445 511.6335281 -352.80078125 518.4765625 C-354.38798767 521.28451389 -355.97355658 524.09338021 -357.55810547 526.90283203 C-358.53069534 528.62053328 -359.5086311 530.335222 -360.49267578 532.04638672 C-361.80094093 534.32597483 -363.08474328 536.61770702 -364.36328125 538.9140625 C-364.93224121 539.88460571 -364.93224121 539.88460571 -365.51269531 540.87475586 C-368.6654429 546.63504469 -369.01684617 552.03404306 -367.2734375 558.359375 C-362.5386492 567.7651834 -354.94496813 573.18081659 -345.05078125 576.5390625 C-340.36052661 577.75855605 -335.77804805 577.68042514 -330.96762562 577.67049026 C-330.04637708 577.6725429 -329.12512854 577.67459553 -328.17596337 577.67671037 C-325.07211432 577.68238937 -321.96830952 577.680922 -318.86445618 577.67950439 C-316.62337591 577.68208751 -314.3822961 577.68510052 -312.14121693 577.6885078 C-305.96936137 577.69658729 -299.79751743 577.6983679 -293.6256572 577.69910526 C-287.65717436 577.70076439 -281.68869689 577.70708128 -275.72021734 577.71318367 C-259.7292095 577.72924325 -243.73820262 577.73514683 -227.74718818 577.73993242 C-220.18259506 577.74226833 -212.61800271 577.74587097 -205.05341018 577.7496278 C-179.15956405 577.76246303 -153.26571834 577.77318243 -127.37186909 577.7766304 C-125.74642535 577.77685203 -124.12098162 577.77707382 -122.49553789 577.77729575 C-120.86616757 577.77751639 -119.23679726 577.77773688 -117.60742694 577.7779572 C-114.33862642 577.77839975 -111.06982591 577.77884687 -107.80102539 577.77929688 C-106.58531679 577.77946096 -106.58531679 577.77946096 -105.34504841 577.77962836 C-79.06336441 577.78325928 -52.78170798 577.79918078 -26.50003454 577.82248724 C1.28589778 577.84708262 29.07181434 577.8608031 56.85775787 577.86199832 C59.90788099 577.86216977 62.9580041 577.8623852 66.00812721 577.86263275 C67.13466791 577.8627164 67.13466791 577.8627164 68.283967 577.86280175 C80.37049042 577.86395242 92.45698554 577.87497578 104.54349941 577.88951981 C116.69172211 577.90388534 128.83990852 577.90712147 140.98813739 577.89907983 C147.56953067 577.89501608 154.15084765 577.89613039 160.73223114 577.91013718 C166.75697091 577.92284218 172.78154354 577.92170838 178.80628297 577.90954646 C180.98597559 577.90758358 183.16567991 577.91069507 185.34535607 577.91939083 C188.30939248 577.93046722 191.27283732 577.92300562 194.23685741 577.9109993 C195.08192196 577.91859449 195.92698651 577.92618968 196.79765907 577.93401504 C206.81784085 577.84646841 215.99781351 574.66712826 223.94921875 568.5390625 C229.43030868 562.66161276 232.46874391 557.27470149 232.28808594 549.18359375 C231.72064877 544.75529445 229.79587648 541.35496159 227.57421875 537.5390625 C227.11869629 536.71712402 226.66317383 535.89518555 226.19384766 535.04833984 C224.7966975 532.53481808 223.37358656 530.03723088 221.94921875 527.5390625 C221.17035498 526.13698065 220.39416642 524.73340822 219.62109375 523.328125 C218.03231005 520.44342567 216.43256673 517.56524443 214.82421875 514.69140625 C211.29844245 508.38404428 207.81255651 502.05467354 204.32421875 495.7265625 C202.94015176 493.21611959 201.55601945 490.7057127 200.171875 488.1953125 C199.64957054 487.24791954 199.64957054 487.24791954 199.11671448 486.28138733 C196.6876173 481.87601372 194.25476522 477.47272839 191.8203125 473.0703125 C190.4671656 470.62255178 189.11431898 468.17462535 187.76171875 465.7265625 C187.4284256 465.12337189 187.09513245 464.52018127 186.7517395 463.89871216 C182.21099516 455.6774082 177.71780023 447.43162229 173.26171875 439.1640625 C169.10080061 431.44493432 164.85029439 423.78469997 160.51171875 416.1640625 C155.18567256 406.80878167 150.04901101 397.36126346 144.96459961 387.87280273 C140.93653005 380.3589361 136.84011737 372.88864105 132.68359375 365.4453125 C129.20732616 359.21853364 125.76747936 352.97162785 122.32421875 346.7265625 C121.63428777 345.47549881 120.9443463 344.2244409 120.25439453 342.97338867 C118.85145746 340.42941989 117.44864454 337.88538269 116.04589844 335.34130859 C113.34327543 330.43992819 110.63933428 325.5392753 107.93530273 320.63867188 C106.60909443 318.23513587 105.28309695 315.83148374 103.95727539 313.42773438 C100.93122437 307.94170088 97.90413357 302.45625235 94.87231445 296.97340393 C87.67760016 283.96201587 80.5194159 270.93313421 73.45361328 257.85107422 C69.99544685 251.45395005 66.49597608 245.08205572 62.95410156 238.73095703 C59.05632423 231.74114843 55.18866699 224.7348323 51.32421875 217.7265625 C50.63436107 216.47566602 49.94450103 215.22477085 49.25463867 213.97387695 C47.85162512 211.42974271 46.44873392 208.88554103 45.04589844 206.34130859 C42.34327543 201.43992819 39.63933428 196.5392753 36.93530273 191.63867188 C35.60909443 189.23513587 34.28309695 186.83148374 32.95727539 184.42773438 C29.93122437 178.94170088 26.90413357 173.45625235 23.87231445 167.97340393 C16.67760016 154.96201587 9.5194159 141.93313421 2.45361328 128.85107422 C-0.99940616 122.46347126 -4.49264135 116.10046718 -8.03051758 109.75952148 C-11.37117682 103.77086812 -14.68491537 97.76758016 -17.99316406 91.76098633 C-19.39905857 89.20876017 -20.80728142 86.65784247 -22.21777344 84.1081543 C-22.90172019 82.87159723 -23.58563989 81.6350252 -24.26953125 80.3984375 C-24.60075989 79.7995723 -24.93198853 79.20070709 -25.27325439 78.58369446 C-27.14784874 75.18954258 -29.00050619 71.78474706 -30.83203125 68.3671875 C-36.26068781 58.30360299 -41.20738304 51.02525274 -52.05078125 46.5390625 C-52.73527344 46.18199219 -53.41976563 45.82492188 -54.125 45.45703125 C-58.62897605 44.04390125 -63.04554512 44.17034882 -67.73828125 44.1640625 C-68.68123047 44.13957031 -69.62417969 44.11507812 -70.59570312 44.08984375 C-82.64113652 44.04017186 -91.12811815 48.46984903 -99.05078125 57.5390625 Z " fill="#000000" transform="translate(468.05078125,89.4609375)"/>
<path d="M0 0 C4.7876667 2.74820747 8.1336005 5.82954275 11.2734375 10.359375 C12.14548828 11.59300781 12.14548828 11.59300781 13.03515625 12.8515625 C15.91388762 17.73887974 16.83588202 22.16104794 16.85336304 27.79522705 C16.86189301 29.04273239 16.87042297 30.29023773 16.87921143 31.57554626 C16.8785125 32.94522107 16.87758949 34.31489579 16.87646484 35.68457031 C16.88245391 37.13719527 16.88926033 38.58981706 16.89682007 40.04243469 C16.91445095 43.97859282 16.91917428 47.91466393 16.92045164 51.85085773 C16.9218757 54.31370504 16.92615016 56.77653041 16.93144608 59.23937225 C16.94993825 67.84205015 16.9581179 76.44466617 16.95654297 85.04736328 C16.95534249 93.04877477 16.97642849 101.04991611 17.0080303 109.05125928 C17.03424183 115.93471959 17.04490819 122.81809195 17.04363215 129.70160174 C17.04312385 133.80658902 17.04873306 137.91133622 17.06998825 142.0162735 C17.08945262 145.88074676 17.08943975 149.74475298 17.07495499 153.60924339 C17.07287574 155.02088038 17.07751467 156.43254724 17.0896759 157.84413338 C17.1861327 169.82407447 15.24154831 178.67708782 6.86328125 187.5078125 C-0.40696183 193.8178348 -10.08644667 197.09271496 -19.66796875 196.859375 C-28.58048432 195.64230317 -36.47257797 191.15648292 -42.4140625 184.484375 C-47.15771068 178.22421525 -49.65110599 172.1282116 -49.69494629 164.1869812 C-49.70636658 162.94236618 -49.71778687 161.69775116 -49.72955322 160.41542053 C-49.73204349 159.04892008 -49.73429378 157.68241918 -49.73632812 156.31591797 C-49.74559425 154.86653646 -49.75564488 153.41715978 -49.76641846 151.9677887 C-49.79258078 148.03977933 -49.80554003 144.11183821 -49.81443977 140.1837554 C-49.82031644 137.72491266 -49.82852897 135.26608825 -49.83744812 132.80725479 C-49.86477838 125.10041962 -49.88412004 117.39362673 -49.8918519 109.68674648 C-49.90080237 100.81595854 -49.93585509 91.94578864 -49.99385309 83.07518852 C-50.03721859 76.20188816 -50.05726751 69.32876083 -50.05993414 62.45532525 C-50.06202131 58.35795344 -50.07364201 54.26116333 -50.10957336 50.16393661 C-50.14276457 46.3042254 -50.14673792 42.44552588 -50.12929535 38.58572197 C-50.12776655 37.17812941 -50.13628115 35.77047986 -50.15621185 34.36302757 C-50.30230704 23.39273553 -48.0758359 14.94206094 -40.8515625 6.484375 C-40.0471875 5.824375 -39.2428125 5.164375 -38.4140625 4.484375 C-37.6715625 3.80375 -36.9290625 3.123125 -36.1640625 2.421875 C-24.84656446 -5.5518168 -12.54574419 -5.69302678 0 0 Z " fill="#000000" transform="translate(416.4140625,270.515625)"/>
<path d="M0 0 C6.90942286 4.82604727 12.14943288 11.58850852 14.671875 19.6796875 C15.09266492 22.48552148 15.14951701 25.22085286 15.109375 28.0546875 C15.10180176 28.80419678 15.09422852 29.55370605 15.08642578 30.32592773 C14.91201997 36.18761804 13.92375805 40.71575387 10.671875 45.6796875 C10.24777344 46.37320313 9.82367188 47.06671875 9.38671875 47.78125 C4.89977642 54.45542048 -1.64369457 59.25127442 -9.328125 61.6796875 C-21.52490637 62.67878555 -31.55185678 61.77610113 -41.25 53.7734375 C-48.20029993 46.77087967 -51.60157839 38.14612626 -51.703125 28.3671875 C-51.6011552 21.85386669 -50.80473099 17.18160602 -47.328125 11.6796875 C-46.90402344 10.98359375 -46.47992188 10.2875 -46.04296875 9.5703125 C-35.22559246 -6.45989415 -16.32764313 -9.25963654 0 0 Z " fill="#000001" transform="translate(418.328125,538.3203125)"/>
</svg>
